<svg width="236" height="64" viewBox="0 0 236 64" fill="none" xmlns="http://www.w3.org/2000/svg">
<g clip-path="url(#clip0_176_1053)">
<path d="M33.9096 22.8785H9.34659C4.19356 22.8785 0 27.072 0 32.2251C0 37.3781 4.19356 41.5689 9.34659 41.5689H18.718V50.9403C18.718 56.0933 22.9088 60.2869 28.0618 60.2869C33.2149 60.2869 37.4084 56.0933 37.4084 50.9403V26.38C37.4084 24.45 35.8396 22.8812 33.9096 22.8812V22.8785Z" fill="#0E256A"/>
<path d="M50.8053 18.718H41.5469C41.4835 18.718 41.4339 18.6684 41.4339 18.605V9.34659C41.4339 4.19356 37.2431 0 32.0873 0C26.9315 0 22.7407 4.19356 22.7407 9.34659V33.5705C22.7407 33.8187 22.7655 34.064 22.8097 34.2984C23.1515 36.0685 24.7093 37.4084 26.5786 37.4084H50.8025C55.9556 37.4084 60.1491 33.2149 60.1491 28.0618C60.1491 22.9088 55.9556 18.7152 50.8025 18.7152L50.8053 18.718ZM57.37 28.0673C57.37 31.6874 54.4254 34.632 50.8053 34.632H26.5814C25.9996 34.632 25.5254 34.1578 25.5254 33.576V9.34659C25.5254 5.72651 28.47 2.78192 32.0901 2.78192C35.7101 2.78192 38.6547 5.72651 38.6547 9.34659V18.605C38.6547 19.603 39.162 20.4853 39.934 21.0064C40.3945 21.3179 40.9514 21.4999 41.5497 21.4999H50.8081C54.4281 21.4999 57.3727 24.4445 57.3727 28.0646L57.37 28.0673Z" fill="#CF002D"/>
<path d="M94.8059 21.4641H91.5222L86.3389 13.7249C85.7075 12.7516 84.8776 11.3648 84.4889 10.7307L84.3427 10.8023C84.4392 11.1663 84.464 12.407 84.464 13.6973L84.4889 21.4586H81.1555V5.40393H84.2214L89.6474 13.5319C90.4745 14.7726 91.2052 16.0877 91.4726 16.573L91.6187 16.5013C91.547 16.0629 91.4726 14.847 91.4726 13.5071L91.4478 5.40393H94.8059V21.4641Z" fill="black"/>
<path d="M109.259 15.721C109.259 19.1757 106.849 21.6102 103.223 21.6102C99.5979 21.6102 97.1633 19.1757 97.1633 15.721C97.1633 12.2664 99.573 9.83185 103.223 9.83185C106.874 9.83185 109.259 12.2664 109.259 15.721ZM105.876 15.721C105.876 13.871 104.853 12.5586 103.223 12.5586C101.594 12.5586 100.546 13.8738 100.546 15.721C100.546 17.5683 101.569 18.8834 103.223 18.8834C104.878 18.8834 105.876 17.5931 105.876 15.721Z" fill="black"/>
<path d="M119.281 10.1737L118.404 13.3857C118.015 13.1183 117.602 12.9722 117.089 12.9722C115.823 12.9722 114.729 13.9951 114.729 15.9168V21.4641H111.396V9.98072L113.998 9.88422C114.241 10.6397 114.412 11.9272 114.412 12.4152H114.508C114.947 10.954 115.845 9.83459 117.574 9.83459C118.23 9.83459 118.765 9.95591 119.278 10.1765L119.281 10.1737Z" fill="black"/>
<path d="M126.777 13.5815C126.777 12.6579 126.096 12.0734 124.927 12.0734C123.833 12.0734 123.223 12.5835 123.223 13.2645C123.223 15.5749 129.94 13.7525 129.965 18.1804C129.989 20.2482 128.09 21.6102 124.952 21.6102C121.473 21.6102 119.89 20.1489 119.598 19.9063L121.156 17.8854C121.398 18.1032 123.102 19.2722 124.831 19.2722C126 19.2722 126.56 18.9303 126.56 18.3706C126.56 16.5206 120.136 17.64 120.136 13.4547C120.136 11.2159 122.082 9.8291 125.051 9.8291C127.825 9.8291 129.772 11.1663 129.772 13.0411C129.772 13.5043 129.675 13.8186 129.675 13.8186L126.731 13.9896C126.755 13.8931 126.78 13.7469 126.78 13.576V13.5815H126.777Z" fill="black"/>
<path d="M136.532 16.6722H135.484V21.4668H132.151V4.28455H135.484V14.1412H136.821L139.887 9.98073H143.684L139.352 15.4812L144.169 21.4668H140.13L136.529 16.6722H136.532Z" fill="black"/>
<path d="M82.5396 29.0516V35.8893H89.9369V36.3773H82.5396V44.406H82.0295V28.5884H90.9102V29.0516H82.5396Z" fill="black"/>
<path d="M103.516 38.7842C103.516 42.214 101.398 44.5024 98.1863 44.5024C97.0669 44.5024 96.0936 44.235 95.2913 43.7249L94.3677 45.1366H93.8328L94.9025 43.4575C93.637 42.4594 92.8816 40.83 92.8816 38.7842C92.8816 35.3544 94.999 33.066 98.1863 33.066C99.3056 33.066 100.279 33.3334 101.106 33.8435L102.008 32.4318H102.542L101.473 34.1109C102.763 35.0842 103.516 36.7384 103.516 38.7842ZM95.17 43.0412L100.839 34.2322C100.108 33.769 99.2091 33.5016 98.1863 33.5016C95.2913 33.5016 93.3696 35.619 93.3696 38.7814C93.3696 40.6563 94.0258 42.1396 95.17 43.0384V43.0412ZM103.03 38.787C103.03 36.9121 102.349 35.4288 101.205 34.5052L95.5367 43.3141C96.2673 43.7773 97.1661 44.0448 98.189 44.0448C101.084 44.0448 103.03 41.9521 103.03 38.7897V38.787Z" fill="black"/>
<path d="M111.958 33.1873L111.861 33.6505C111.79 33.6257 111.351 33.5292 110.96 33.5292C108.625 33.5292 107.577 36.6695 107.577 38.0067V44.4059H107.089V33.1652L107.453 33.1404C107.524 34.1881 107.549 35.3296 107.549 36.3773H107.574C107.963 34.7726 109.157 33.0687 110.957 33.0687C111.445 33.0687 111.881 33.1652 111.955 33.19L111.958 33.1873Z" fill="black"/>
<path d="M120.839 36.0105C120.839 34.3811 119.402 33.5043 117.53 33.5043C115.559 33.5043 114.293 34.4776 114.293 35.914C114.293 39.3935 121.641 37.447 121.641 41.511C121.641 43.3362 120.158 44.5052 117.577 44.5052C114.682 44.5052 113.416 42.9971 113.295 42.9006L113.684 42.6083C113.734 42.6579 114.925 44.0448 117.577 44.0448C119.791 44.0448 121.153 43.0963 121.153 41.5634C121.153 37.9874 113.805 39.8595 113.805 35.9416C113.805 34.2129 115.266 33.0715 117.527 33.0715C119.645 33.0715 121.299 34.0695 121.299 35.8948C121.299 36.2118 121.249 36.5261 121.249 36.5261L120.761 36.5978C120.786 36.573 120.833 36.3304 120.833 36.0133H120.839V36.0105Z" fill="black"/>
<path d="M131.448 43.6505C131.448 43.6505 130.4 44.5273 128.82 44.5273C126.606 44.5273 125.633 43.3831 125.633 41.023V33.6008H123.687V33.1625H125.633V29.6334L126.121 29.5837V33.1597H130.963V33.5981H126.121V41.0202C126.121 43.0164 126.876 44.0613 128.823 44.0613C130.235 44.0613 131.208 43.2838 131.208 43.2838L131.451 43.6477L131.448 43.6505Z" fill="black"/>
<path d="M142.518 37.9323C142.518 38.4203 142.468 38.6877 142.468 38.6877H133.441V38.7842C133.441 41.9466 135.316 44.0393 138.308 44.0393C139.816 44.0393 141.032 43.5513 141.862 42.6276L142.203 42.9447C141.205 44.0641 139.818 44.5025 138.31 44.5025C135.027 44.5025 132.956 42.2389 132.956 38.809C132.956 35.1834 135.22 33.066 138.018 33.066C140.599 33.066 142.52 34.8664 142.52 37.9323H142.518ZM133.466 38.2245H142.032V37.9571C142.032 35.109 140.403 33.5044 138.043 33.5044C135.683 33.5044 133.687 35.2551 133.469 38.2245H133.466Z" fill="black"/>
<path d="M155.537 37.5187V44.406H155.049V37.5187C155.049 35.1586 153.516 33.5044 151.156 33.5044C148.236 33.5044 146.557 36.0602 146.557 37.8854V44.406H146.069V27.2264H146.532V36.3525H146.582C147.117 34.5521 148.82 33.0687 151.181 33.0687C153.882 33.0687 155.537 34.9188 155.537 37.5215V37.5187Z" fill="black"/>
<path d="M157.434 49.0048C159.137 49.0048 159.965 48.1529 159.965 45.8645V33.1625L160.453 33.1377V45.8645C160.453 48.299 159.529 49.4652 157.436 49.4652C156.171 49.4652 155.515 48.9056 155.515 48.9056L155.686 48.492C155.686 48.492 156.317 49.0021 157.436 49.0021H157.434V49.0048ZM160.282 30.0773C159.94 30.0773 159.626 29.7602 159.626 29.4211C159.626 29.0571 159.943 28.7649 160.282 28.7649C160.646 28.7649 160.938 29.0571 160.938 29.4211C160.938 29.763 160.646 30.0773 160.282 30.0773Z" fill="black"/>
<path d="M173.687 37.9323C173.687 38.4203 173.637 38.6877 173.637 38.6877H164.61V38.7842C164.61 41.9466 166.485 44.0393 169.477 44.0393C170.985 44.0393 172.201 43.5513 173.03 42.6276L173.372 42.9447C172.374 44.0641 170.987 44.5025 169.479 44.5025C166.196 44.5025 164.125 42.2389 164.125 38.809C164.125 35.1834 166.389 33.066 169.187 33.066C171.768 33.066 173.689 34.8664 173.689 37.9323H173.687ZM164.635 38.2245H173.201V37.9571C173.201 35.109 171.572 33.5044 169.212 33.5044C166.852 33.5044 164.856 35.2551 164.638 38.2245H164.635Z" fill="black"/>
<path d="M177.288 27.2264H177.776V44.406H177.288V27.2264Z" fill="black"/>
<path d="M192.521 38.7842C192.521 42.2141 190.453 44.5025 187.362 44.5025C184.928 44.5025 183.202 43.0412 182.714 41.1939V49.3687H182.226V33.1625L182.59 33.1377C182.661 34.1854 182.686 35.3268 182.686 36.3745H182.711C183.199 34.5493 184.828 33.066 187.359 33.066C190.45 33.066 192.518 35.3544 192.518 38.7842H192.521ZM192.033 38.7842C192.033 35.6218 190.158 33.5044 187.337 33.5044C184.222 33.5044 182.714 36.085 182.714 37.8854V39.7354C182.714 41.5358 184.343 44.042 187.337 44.042C190.161 44.042 192.033 41.9494 192.033 38.787V38.7842Z" fill="black"/>
<path d="M202.617 36.0105C202.617 34.3811 201.181 33.5043 199.309 33.5043C197.337 33.5043 196.072 34.4776 196.072 35.914C196.072 39.3935 203.419 37.447 203.419 41.511C203.419 43.3362 201.936 44.5052 199.356 44.5052C196.461 44.5052 195.195 42.9971 195.074 42.9006L195.462 42.6083C195.512 42.6579 196.703 44.0448 199.356 44.0448C201.569 44.0448 202.931 43.0963 202.931 41.5634C202.931 37.9874 195.584 39.8595 195.584 35.9416C195.584 34.2129 197.045 33.0715 199.306 33.0715C201.423 33.0715 203.078 34.0695 203.078 35.8948C203.078 36.2118 203.028 36.5261 203.028 36.5261L202.54 36.5978C202.565 36.573 202.612 36.3304 202.612 36.0133H202.617V36.0105Z" fill="black"/>
<path d="M211.84 33.1873L211.743 33.6505C211.671 33.6257 211.233 33.5292 210.841 33.5292C208.506 33.5292 207.458 36.6695 207.458 38.0067V44.4059H206.97V33.1652L207.334 33.1404C207.406 34.1881 207.431 35.3296 207.431 36.3773H207.456C207.844 34.7726 209.038 33.0687 210.839 33.0687C211.327 33.0687 211.762 33.1652 211.837 33.19H211.84V33.1873Z" fill="black"/>
<path d="M223.348 44.4308C223.276 44.4556 223.08 44.5024 222.813 44.5024C222.132 44.5024 221.572 44.1385 221.572 43.0908V41.6792H221.547C220.988 42.9447 219.526 44.5024 216.778 44.5024C214.514 44.5024 213.249 43.4547 213.249 41.7288C213.249 39.0765 216.243 38.4203 220.304 38.2741L221.569 38.2493V37.1051C221.569 34.9408 220.086 33.5043 217.748 33.5043C215.584 33.5043 214.026 34.7202 214.026 36.5702C214.026 37.0086 214.147 37.3009 214.147 37.3257L213.709 37.4222C213.709 37.4222 213.563 37.0334 213.563 36.4986C213.563 34.4555 215.314 33.0687 217.748 33.0687C220.4 33.0687 222.055 34.6513 222.055 37.1079V43.0687C222.055 43.7746 222.397 44.042 222.907 44.042C223.053 44.042 223.199 44.0172 223.295 43.9924L223.345 44.4308H223.348ZM221.572 40.7307V38.6877L220.307 38.7373C216.631 38.8586 213.737 39.3935 213.737 41.7067C213.737 43.0936 214.806 44.042 216.877 44.042C220.577 44.042 221.572 40.9513 221.572 40.7335V40.7307ZM216.171 29.4872C216.171 28.5636 216.852 27.9047 217.754 27.9047C218.655 27.9047 219.358 28.5609 219.358 29.4872C219.358 30.4136 218.677 31.0698 217.754 31.0698C216.83 31.0698 216.171 30.3888 216.171 29.4872ZM216.634 29.4872C216.634 30.1682 217.097 30.6066 217.754 30.6066C218.41 30.6066 218.898 30.1682 218.898 29.4872C218.898 28.8062 218.435 28.343 217.754 28.343C217.073 28.343 216.634 28.8062 216.634 29.4872Z" fill="black"/>
<path d="M236 27.3726V44.3811L235.658 44.406C235.587 43.3362 235.562 42.2168 235.562 41.1691H235.537C235.049 42.9943 233.395 44.4776 230.889 44.4776C227.798 44.4776 225.73 42.1892 225.73 38.7594C225.73 35.3296 227.798 33.0412 230.889 33.0412C233.273 33.0412 234.977 34.4528 235.512 36.2532V27.3726H236ZM235.512 39.661V37.811C235.512 36.0106 233.908 33.4795 230.889 33.4795C228.09 33.4795 226.215 35.597 226.215 38.7594C226.215 41.9218 228.09 44.0145 230.889 44.0145C234.029 44.0145 235.512 41.4586 235.512 39.6582V39.661Z" fill="black"/>
<path d="M88.9911 60.4496H88.3515L83.612 53.3445C83.3997 52.9971 83.0385 52.4374 83.011 52.3574L82.9696 52.3712C82.9834 52.4512 83.011 52.7986 83.011 53.2122V60.4496H82.5037V51.7288H83.1323L87.8717 58.8725C88.1392 59.2723 88.3405 59.6197 88.4866 59.8595L88.5279 59.8458C88.5142 59.7244 88.4866 59.366 88.4866 58.9773V51.7261H88.9939V60.4468H88.9911V60.4496Z" fill="black"/>
<path d="M97.042 57.3506C97.042 59.2475 95.8537 60.5157 94.0505 60.5157C92.2474 60.5157 91.0591 59.2475 91.0591 57.3506C91.0591 55.4537 92.2474 54.1854 94.0505 54.1854C95.8537 54.1854 97.042 55.4675 97.042 57.3506ZM96.5623 57.3506C96.5623 55.7211 95.5614 54.599 94.0505 54.599C92.5396 54.599 91.5388 55.7211 91.5388 57.3506C91.5388 58.98 92.5396 60.0884 94.0505 60.0884C95.5614 60.0884 96.5623 58.9938 96.5623 57.3506Z" fill="black"/>
<path d="M101.781 54.2654L101.674 54.7341C101.608 54.7065 101.379 54.6403 101.153 54.6403C100.003 54.6403 99.3772 56.1237 99.3772 56.9894V60.4468H98.9084V54.2378L99.2421 54.224C99.2944 54.7837 99.322 55.4261 99.322 55.9334H99.3358C99.5619 55.0512 100.191 54.1854 101.167 54.1854C101.434 54.1854 101.688 54.2378 101.781 54.2654Z" fill="black"/>
<path d="M111.023 54.2378L109.088 60.4468H108.459L106.871 55.3599C106.83 55.2138 106.75 54.9464 106.739 54.8802H106.725C106.711 54.9464 106.645 55.2138 106.592 55.3599L105.004 60.4468H104.365L102.402 54.2378H102.936L104.594 59.6583C104.621 59.7796 104.687 59.9533 104.687 59.9781H104.715C104.729 59.9505 104.795 59.7658 104.822 59.6583L106.49 54.2378H106.998L108.68 59.6445C108.707 59.752 108.746 59.9505 108.759 59.9781H108.787C108.787 59.9505 108.853 59.7658 108.881 59.6445L110.538 54.2378H111.031H111.023Z" fill="black"/>
<path d="M117.483 56.9232C117.483 57.2182 117.455 57.3782 117.455 57.3782H112.542C112.556 59.0076 113.543 60.0884 115.106 60.0884C115.961 60.0884 116.601 59.7824 117.017 59.2999L117.337 59.5811C116.777 60.2345 115.975 60.5157 115.093 60.5157C113.223 60.5157 112.062 59.2475 112.062 57.3644C112.062 55.4813 113.303 54.1854 114.933 54.1854C116.441 54.1854 117.483 55.2524 117.483 56.9232ZM112.556 56.9894H117.003V56.8819C117.003 55.4399 116.162 54.599 114.933 54.599C113.703 54.599 112.688 55.5061 112.556 56.9894Z" fill="black"/>
<path d="M124.668 61.3429C124.668 62.5312 123.601 63.226 121.61 63.226C119.741 63.226 118.619 62.5588 118.619 61.489C118.619 60.7143 119.112 60.2069 119.887 59.9946C119.327 59.8347 119.005 59.5259 119.005 59.0076C119.005 58.4589 119.485 58.1005 119.981 58.0206C119.487 57.6456 119.206 57.0583 119.206 56.3635C119.206 55.0429 120.182 54.1744 121.624 54.1744C122.305 54.1744 122.879 54.3619 123.292 54.6955C123.841 54.5742 124.067 54.0283 124.067 53.4658L124.508 53.5733C124.508 54.4418 123.959 54.8692 123.532 54.9078C123.879 55.2828 124.067 55.7763 124.067 56.3635C124.067 57.6594 123.091 58.5389 121.624 58.5389C121.144 58.5389 120.717 58.4452 120.37 58.2715C119.81 58.3128 119.463 58.5775 119.463 58.9662C119.463 59.5535 120.064 59.6748 121.026 59.6748H122.44C123.844 59.6748 124.671 60.3283 124.671 61.3429H124.668ZM124.199 61.3429C124.199 60.5543 123.584 60.1022 122.369 60.1022H120.913C119.777 60.1022 119.082 60.6371 119.082 61.4366C119.082 62.3051 120.044 62.8124 121.605 62.8124C123.248 62.8124 124.197 62.3327 124.197 61.3429H124.199ZM121.621 58.1115C122.796 58.1115 123.584 57.4168 123.584 56.3635C123.584 55.3103 122.796 54.588 121.621 54.588C120.447 54.588 119.686 55.2965 119.686 56.3635C119.686 57.4305 120.461 58.1115 121.621 58.1115Z" fill="black"/>
<path d="M126.468 52.6497C126.215 52.6497 126 52.4484 126 52.1948C126 51.9411 126.212 51.7261 126.468 51.7261C126.725 51.7261 126.937 51.9384 126.937 52.1948C126.937 52.4512 126.725 52.6497 126.468 52.6497ZM126.201 54.2378L126.681 54.224V60.4468H126.201V54.2378Z" fill="black"/>
<path d="M134.241 60.4496C134.213 60.4634 134.053 60.502 133.866 60.502C133.425 60.502 133.077 60.2759 133.077 59.6748V59.0738H133.063C132.796 59.6886 132.049 60.5157 130.552 60.5157C129.27 60.5157 128.561 59.9009 128.561 58.9276C128.561 57.4995 130.124 57.0969 132.487 57.0308L133.061 57.017V56.4435C133.061 55.3351 132.313 54.6017 131.084 54.6017C129.962 54.6017 129.187 55.2028 129.187 56.1237C129.187 56.3498 129.239 56.4986 129.253 56.5234L128.798 56.6034C128.798 56.6034 128.718 56.3911 128.718 56.0823C128.718 54.9602 129.694 54.1854 131.095 54.1854C132.603 54.1854 133.538 55.0677 133.538 56.4407V59.5508C133.538 59.9257 133.698 60.0718 133.979 60.0718C134.059 60.0718 134.139 60.0581 134.191 60.0443L134.232 60.4441L134.241 60.4496ZM133.066 58.3928V57.3919L132.493 57.4195C130.436 57.4609 129.046 57.7807 129.046 58.9139C129.046 59.6224 129.595 60.0884 130.648 60.0884C132.49 60.0884 133.066 58.6188 133.066 58.3928Z" fill="black"/>
<path d="M141.197 56.642V60.4468H140.717V56.642C140.717 55.4399 139.956 54.599 138.74 54.599C137.205 54.599 136.364 55.9472 136.364 56.937V60.4496H135.895V54.2406L136.229 54.2268C136.281 54.7865 136.309 55.4289 136.309 55.9362H136.322C136.628 55.0015 137.511 54.1882 138.807 54.1882C140.29 54.1882 141.197 55.2028 141.197 56.6448V56.642Z" fill="black"/>
<path d="M151.277 54.2378L151.757 54.224V60.4468H151.277V54.6514H147.632V60.4468H147.152V54.6514H146.218V54.2378H147.152V53.0633C147.152 51.7812 147.927 50.9541 149.049 50.9541C149.851 50.9541 150.345 51.3291 150.411 51.3952L150.185 51.7702C150.119 51.7178 149.73 51.3842 149.063 51.3842C148.222 51.3842 147.635 52.0376 147.635 53.0523V54.2406H151.28H151.277V54.2378ZM152.01 52.192C152.01 52.4457 151.798 52.647 151.542 52.647C151.285 52.647 151.073 52.4457 151.073 52.192C151.073 51.9384 151.285 51.7233 151.542 51.7233C151.798 51.7233 152.01 51.9356 152.01 52.192Z" fill="black"/>
<path d="M156.697 54.2654L156.59 54.7341C156.524 54.7065 156.295 54.6403 156.069 54.6403C154.919 54.6403 154.293 56.1237 154.293 56.9894V60.4468H153.824V54.2378L154.158 54.224C154.21 54.7837 154.238 55.4261 154.238 55.9334H154.252C154.478 55.0512 155.107 54.1854 156.083 54.1854C156.35 54.1854 156.604 54.2378 156.697 54.2654Z" fill="black"/>
<path d="M161.492 55.8948C161.492 55.0677 160.759 54.599 159.783 54.599C158.754 54.599 158.114 55.0925 158.114 55.8287C158.114 57.6318 162.093 56.562 162.107 58.8339C162.107 59.8623 161.225 60.5157 159.796 60.5157C158.222 60.5157 157.486 59.7272 157.354 59.6086L157.687 59.3026C157.767 59.3826 158.462 60.0911 159.796 60.0911C160.946 60.0911 161.627 59.6114 161.627 58.8504C161.627 57.0473 157.635 58.0233 157.635 55.8314C157.635 54.8692 158.476 54.1882 159.785 54.1882C161.015 54.1882 161.95 54.7892 161.95 55.8038C161.95 56.0051 161.908 56.1788 161.908 56.1788L161.453 56.2202C161.467 56.1926 161.495 56.0602 161.495 55.9003V55.8948H161.492Z" fill="black"/>
<path d="M167.58 60.0608C167.58 60.0608 166.993 60.5157 166.085 60.5157C164.776 60.5157 164.216 59.8347 164.216 58.4589V54.6541H163.16V54.2405H164.216V52.3299L164.696 52.2885V54.2378H167.299V54.6514H164.696V58.4562C164.696 59.5232 165.096 60.0994 166.11 60.0994C166.885 60.0994 167.392 59.672 167.392 59.672L167.58 60.058V60.0608Z" fill="black"/>
<path d="M177.461 60.4496C177.434 60.4634 177.274 60.502 177.086 60.502C176.645 60.502 176.298 60.2759 176.298 59.6748V59.0738H176.284C176.016 59.6886 175.269 60.5157 173.772 60.5157C172.49 60.5157 171.781 59.9009 171.781 58.9276C171.781 57.4995 173.345 57.0969 175.708 57.0308L176.281 57.017V56.4435C176.281 55.3351 175.534 54.6017 174.304 54.6017C173.182 54.6017 172.407 55.2028 172.407 56.1237C172.407 56.3498 172.46 56.4986 172.474 56.5234L172.019 56.6034C172.019 56.6034 171.939 56.3911 171.939 56.0823C171.939 54.9602 172.915 54.1854 174.315 54.1854C175.823 54.1854 176.758 55.0677 176.758 56.4407V59.5508C176.758 59.9257 176.918 60.0718 177.199 60.0718C177.279 60.0718 177.359 60.0581 177.411 60.0443L177.453 60.4441L177.461 60.4496ZM176.287 58.3928V57.3919L175.713 57.4195C173.656 57.4609 172.267 57.7807 172.267 58.9139C172.267 59.6224 172.815 60.0884 173.869 60.0884C175.71 60.0884 176.287 58.6188 176.287 58.3928Z" fill="black"/>
<path d="M179.397 52.6497C179.143 52.6497 178.928 52.4484 178.928 52.1948C178.928 51.9411 179.14 51.7261 179.397 51.7261C179.653 51.7261 179.865 51.9384 179.865 52.1948C179.865 52.4512 179.653 52.6497 179.397 52.6497ZM179.129 54.2378L179.609 54.224V60.4468H179.129V54.2378Z" fill="black"/>
<path d="M187.329 51.0754V60.4358L186.968 60.4633C186.926 59.9147 186.902 59.2612 186.902 58.7539H186.888C186.593 59.7162 185.727 60.5019 184.376 60.5019C182.667 60.5019 181.506 59.2337 181.506 57.3368C181.506 55.4399 182.667 54.1716 184.404 54.1716C185.633 54.1716 186.499 54.8526 186.846 55.7459V51.0726H187.329V51.0754ZM186.849 57.7559V56.9149C186.849 55.9279 186.022 54.6045 184.42 54.6045C182.964 54.6045 181.991 55.6991 181.991 57.3423C181.991 58.9855 182.967 60.0801 184.434 60.0801C186.063 60.0801 186.852 58.7319 186.852 57.7559H186.849Z" fill="black"/>
<path d="M197.889 56.2698C197.889 56.4573 197.861 56.6448 197.861 56.6448L197.406 56.6861C197.406 56.6861 197.434 56.5124 197.434 56.3525C197.434 55.3241 196.686 54.6045 195.498 54.6045C194.029 54.6045 193.028 55.6991 193.028 57.3699C193.028 59.0407 194.004 60.0939 195.592 60.0939C196.54 60.0939 197.155 59.7189 197.555 59.3054L197.85 59.6114C197.301 60.2125 196.515 60.5185 195.595 60.5185C193.725 60.5185 192.551 59.2502 192.551 57.3671C192.551 55.484 193.739 54.1882 195.501 54.1882C196.97 54.1882 197.891 55.0704 197.891 56.2725L197.889 56.2698Z" fill="black"/>
<path d="M205.3 57.3506C205.3 59.2475 204.111 60.5157 202.308 60.5157C200.505 60.5157 199.317 59.2475 199.317 57.3506C199.317 55.4537 200.505 54.1854 202.308 54.1854C204.111 54.1854 205.3 55.4675 205.3 57.3506ZM204.82 57.3506C204.82 55.7211 203.819 54.599 202.308 54.599C200.797 54.599 199.796 55.7211 199.796 57.3506C199.796 58.98 200.797 60.0884 202.308 60.0884C203.819 60.0884 204.82 58.9938 204.82 57.3506Z" fill="black"/>
<path d="M212.215 54.2378V60.4468L211.867 60.4744C211.815 59.9147 211.787 59.2723 211.787 58.7925C211.481 59.7272 210.613 60.5157 209.358 60.5157C207.902 60.5157 207.089 59.5287 207.089 58.0867V54.2405H207.569V58.0867C207.569 59.3026 208.222 60.0884 209.424 60.0884C210.933 60.0884 211.749 58.7401 211.749 57.7641V54.2378H212.217H212.215Z" fill="black"/>
<path d="M219.813 56.642V60.4468H219.333V56.642C219.333 55.4399 218.572 54.599 217.357 54.599C215.821 54.599 214.98 55.9472 214.98 56.937V60.4496H214.511V54.2406L214.845 54.2268C214.897 54.7865 214.925 55.4289 214.925 55.9362H214.939C215.245 55.0015 216.127 54.1882 217.423 54.1882C218.906 54.1882 219.813 55.2028 219.813 56.6448V56.642Z" fill="black"/>
<path d="M226.943 56.2698C226.943 56.4573 226.915 56.6448 226.915 56.6448L226.46 56.6861C226.46 56.6861 226.488 56.5124 226.488 56.3525C226.488 55.3241 225.741 54.6045 224.553 54.6045C223.083 54.6045 222.082 55.6991 222.082 57.3699C222.082 59.0407 223.058 60.0939 224.646 60.0939C225.595 60.0939 226.21 59.7189 226.609 59.3054L226.904 59.6114C226.356 60.2125 225.57 60.5185 224.649 60.5185C222.78 60.5185 221.605 59.2502 221.605 57.3671C221.605 55.484 222.794 54.1882 224.555 54.1882C226.025 54.1882 226.946 55.0704 226.946 56.2725L226.943 56.2698Z" fill="black"/>
<path d="M229.08 52.6497C228.826 52.6497 228.611 52.4484 228.611 52.1948C228.611 51.9411 228.823 51.7261 229.08 51.7261C229.336 51.7261 229.549 51.9384 229.549 52.1948C229.549 52.4512 229.336 52.6497 229.08 52.6497ZM228.812 54.2378L229.292 54.224V60.4468H228.812V54.2378Z" fill="black"/>
<path d="M231.63 51.0203H232.11V60.4468H231.63V51.0203Z" fill="black"/>
</g>
<defs>
<clipPath id="clip0_176_1053">
<rect width="236" height="63.226" fill="white"/>
</clipPath>
</defs>
</svg>
