<svg width="142" height="30" viewBox="0 0 142 30" fill="none" xmlns="http://www.w3.org/2000/svg">
<g clip-path="url(#clip0_176_1032)">
<path d="M3.09758 11.4676L3.37573 11.4419C4.48412 11.3433 5.44922 11.8963 6.27524 13.1052L6.39325 13.3795C6.41853 13.6711 6.28789 13.8297 6.00131 13.8554C5.83694 13.8683 5.59672 13.6068 5.28064 13.0666C4.66113 12.4493 4.00789 12.1706 3.31673 12.2349C2.44857 12.3121 1.75319 12.7622 1.23482 13.5853C1.10417 13.9669 1.04939 14.3312 1.07889 14.6699L1.09153 14.7942C1.21375 16.1918 2.1662 18.0137 3.95311 20.2601C5.74001 22.5064 6.68825 24.2212 6.7894 25.4001L6.79783 25.4944C6.92426 26.9606 6.48596 28.2209 5.48293 29.2669C5.01092 29.6871 4.47148 29.9228 3.87303 29.9786C2.575 30.0943 1.28961 29.4427 0.0168576 28.0237L0 27.8351C0.0126432 27.6036 0.118003 27.4793 0.307651 27.4621L0.400368 27.4536C0.535229 27.4407 0.779664 27.6422 1.13367 28.0495C2.07348 28.8683 2.96272 29.2412 3.80139 29.1641C5.01935 29.0569 5.75687 28.0666 6.02238 26.1932L6.00974 25.6916L5.98445 25.4087C5.87066 24.1098 4.81706 22.3564 2.82365 20.1529C1.25168 17.9751 0.404582 16.1918 0.286579 14.8028C0.160147 13.3152 0.851309 12.2649 2.36849 11.6519C2.56657 11.549 2.80679 11.4847 3.09758 11.459V11.4676Z" fill="#CF002D"/>
<path d="M13.1995 19.5784C13.5072 19.5527 13.7053 20.0586 13.798 21.1003L13.9286 22.2535C13.9834 22.8923 13.9961 23.6167 13.9624 24.427C14.2405 25.4944 14.6914 26.9048 15.3194 28.6539V28.6839C15.3362 28.8597 15.2225 28.984 14.9822 29.0612H14.919C14.6577 29.0912 14.4554 28.7611 14.3079 28.0794C14.1562 27.7579 13.9371 27.1235 13.6463 26.1846H13.6168C13.2881 27.3078 12.736 28.1266 11.9689 28.6368C11.5349 28.9497 11.0544 29.1297 10.5276 29.1769H10.4981C9.42345 29.2755 8.68593 28.7311 8.28134 27.5479C8.13805 27.0935 8.04955 26.669 8.01584 26.2789L7.98634 25.936C7.83883 24.2469 8.34035 22.7293 9.48245 21.3875C10.3085 20.663 11.1598 20.2601 12.0448 20.1829L12.7823 20.1186C12.7992 19.7799 12.9425 19.5999 13.1995 19.5784ZM8.77021 26.056C8.87136 27.2049 9.21273 27.9594 9.80274 28.3281L10.3633 28.371L10.5487 28.3538C11.518 28.2681 12.2724 27.5264 12.8034 26.1332C13.0436 25.3358 13.1532 24.7871 13.1279 24.4956C12.9256 23.591 12.8034 22.8837 12.7613 22.3864L12.7107 21.8248L12.698 20.9417L12.4199 20.9331C10.5613 21.1003 9.38552 22.2021 8.89665 24.2426C8.77022 24.9328 8.72807 25.5373 8.77443 26.0517L8.77021 26.056Z" fill="#CF002D"/>
<path d="M16.1623 19.5656C16.4278 19.5399 16.5837 19.7885 16.6301 20.3116L17.14 24.7743H17.1695C17.5909 21.2032 18.3622 19.3684 19.4832 19.2698C20.9793 19.1369 21.9781 20.2644 22.4712 22.6608L22.6019 23.4367H22.6314C22.9938 20.4616 23.6765 18.9269 24.6838 18.8368C25.3791 18.7725 26.0239 19.1884 26.6182 20.0801C27.204 20.8903 27.6591 23.1409 27.9752 26.832C28.0174 26.832 28.0553 27.0335 28.089 27.4536C28.03 27.6465 27.8951 27.7537 27.6844 27.7751C27.3978 27.8008 27.2166 27.385 27.145 26.5319C26.812 22.6608 26.281 20.5002 25.5604 20.0543C25.2949 19.7628 25.0251 19.6299 24.7512 19.6556C24.3255 19.6942 23.9252 20.6545 23.5417 22.5365C23.2467 24.6414 23.1539 26.2704 23.2509 27.415C23.1582 27.6122 23.0317 27.7194 22.8758 27.7322C22.4881 27.7665 22.231 27.0978 22.113 25.7217C21.8011 23.3124 21.5356 21.9192 21.3165 21.5376C20.9456 20.5002 20.3429 20.0158 19.5169 20.0929C19.1081 20.1315 18.7078 20.9846 18.3116 22.6608C18.0672 23.6339 17.8775 25.0701 17.7553 26.9649L17.7427 28.2595L17.7848 28.4139C17.7384 28.6925 17.6162 28.8383 17.4224 28.8554C17.1358 28.8811 16.9714 28.6625 16.9335 28.2038C16.6975 27.6036 16.3098 24.83 15.783 19.8914C15.8546 19.6942 15.981 19.5913 16.158 19.5742L16.1623 19.5656Z" fill="#CF002D"/>
<path d="M28.9951 18.421C29.2606 18.3952 29.4166 18.6439 29.4629 19.1669L29.9729 23.6296H30.0024C30.4238 20.0586 31.1951 18.2238 32.3161 18.1252C33.8122 17.9923 34.8068 19.1197 35.3041 21.5161L35.4347 22.2921H35.4642C35.8267 19.3169 36.5094 17.7822 37.5167 17.6922C38.212 17.6279 38.8568 18.0437 39.4511 18.9354C40.0369 19.7456 40.492 21.9963 40.8081 25.6873C40.8502 25.6873 40.8882 25.8888 40.9219 26.3089C40.8629 26.5018 40.728 26.609 40.5173 26.6305C40.2307 26.6562 40.0495 26.2403 39.9779 25.3872C39.6449 21.5161 39.1139 19.3555 38.3975 18.9097C38.132 18.6182 37.8622 18.4853 37.5883 18.511C37.1626 18.5496 36.7623 19.5099 36.383 21.3918C36.088 23.4967 35.991 25.1257 36.0922 26.2704C35.9995 26.4676 35.873 26.5747 35.7171 26.5876C35.3294 26.6219 35.0723 25.9531 34.9543 24.577C34.6424 22.1678 34.3769 20.7745 34.1578 20.393C33.7869 19.3555 33.1842 18.8711 32.3582 18.9483C31.9494 18.9868 31.5491 19.8399 31.1529 21.5161C30.9085 22.4893 30.7188 23.9254 30.5966 25.8202L30.584 27.1149L30.6303 27.2692C30.584 27.5479 30.4617 27.6936 30.2637 27.7108C29.9771 27.7365 29.8127 27.5179 29.7748 27.0592C29.5388 26.459 29.1511 23.6853 28.6243 18.7468C28.6959 18.5496 28.8223 18.4467 28.9993 18.4295L28.9951 18.421Z" fill="#CF002D"/>
<path d="M44.327 17.0149L44.5714 16.9934C45.0645 16.9506 45.4396 17.3364 45.6924 18.1552V18.2195C45.7809 19.2012 45.0055 20.2344 43.3619 21.3275C42.8814 21.5805 42.5316 21.7177 42.3125 21.7348L42.3546 22.2021C42.2071 23.8354 42.4347 24.8986 43.0374 25.4044C43.6442 25.906 44.1457 26.0903 44.5461 25.9532C44.9465 25.816 45.2457 25.4859 45.4438 24.9629L45.6292 24.9457C45.7978 24.9286 45.9242 25.0357 45.9959 25.2587L46.0043 25.353C46.0169 25.5116 45.8989 25.7517 45.6545 26.0732C45.4059 26.3947 44.8706 26.6091 44.0404 26.7162C43.2144 26.8234 42.5358 26.3476 42.0048 25.2801C41.4738 24.2127 41.3221 23.1581 41.5412 22.1163V22.052L41.5202 21.5162C41.3895 21.4219 41.3137 21.2932 41.301 21.1261C41.3347 20.8688 41.4654 20.7317 41.6972 20.7102L41.7899 20.7017C41.95 20.1401 42.2577 19.4413 42.7255 18.6011C43.345 17.5808 43.8802 17.0492 44.3227 17.0063L44.327 17.0149ZM42.6075 20.7917H42.637C43.1975 20.5688 43.8128 20.0758 44.4913 19.2998C44.7863 18.8883 44.9254 18.571 44.9043 18.3481L44.8917 18.2238C44.7905 17.9194 44.6515 17.7737 44.4829 17.7865C43.9772 18.0823 43.5052 18.7254 43.0669 19.7114C42.9067 19.9514 42.755 20.3115 42.6033 20.7917H42.6075Z" fill="#CF002D"/>
<path d="M47.6311 16.6591C47.8587 16.6376 48.002 16.7834 48.0694 17.092L48.1116 17.5936L48.2549 18.8711L48.3307 20.0929L48.3518 20.3415H48.3813C48.71 17.9151 49.4138 16.6548 50.5011 16.5562C51.3061 16.4833 52.0099 16.9763 52.6125 18.0395C53.0635 18.9526 53.3711 20.3415 53.5313 22.2106L53.6788 24.277L53.7799 25.0872C53.7083 25.3015 53.5945 25.4173 53.4386 25.4344C53.1857 25.4559 53.0298 25.3144 52.9666 25.0057L52.7474 22.4721C52.444 18.9697 51.698 17.2721 50.5096 17.375C50.0375 17.4178 49.6372 18.1466 49.3042 19.5613C49.0387 20.7745 48.9123 22.4464 48.9334 24.5727C48.9713 25.4944 48.9334 25.9617 48.8069 25.9703L48.6299 26.0475L48.5372 26.056C48.2928 26.0775 48.1453 25.816 48.0989 25.2758C47.9851 24.6842 47.8587 23.6982 47.7196 22.3135L47.412 18.3996L47.2603 17.0277C47.3235 16.792 47.4457 16.6633 47.6311 16.6462V16.6591Z" fill="#CF002D"/>
<path d="M67.0048 14.7171H67.047C67.5401 14.6699 67.9615 14.8286 68.3155 15.1887L68.4082 15.4116C68.4335 15.7117 68.2692 15.8917 67.9194 15.9603C67.4895 15.7888 67.2282 15.7074 67.1355 15.716L67.0217 15.7245C66.3347 15.7374 65.6604 16.4747 65.003 17.9452C64.2528 19.6985 64.0126 21.8163 64.2823 24.2941C64.2823 24.5385 64.1938 24.6714 64.0168 24.6842H63.9747C63.646 24.7185 63.4563 24.4227 63.4015 23.8054C62.8494 18.7897 62.5165 16.2861 62.4027 16.299L62.2426 15.7674L62.2299 15.6216C62.2131 15.4073 62.3479 15.2487 62.6429 15.1544C62.9927 15.1244 63.2498 15.463 63.4226 16.1789C63.6544 17.3364 63.7977 18.2281 63.8525 18.8626H63.882C64.3203 17.1392 64.9566 15.9432 65.7911 15.2658C66.183 14.9443 66.5876 14.7643 67.0048 14.7257V14.7171Z" fill="#CF002D"/>
<path d="M70.3384 14.6913L70.5829 14.6699C71.076 14.627 71.451 15.0129 71.7039 15.8317V15.896C71.7924 16.8777 71.017 17.9108 69.3733 19.004C68.8929 19.2569 68.5431 19.3941 68.324 19.4113L68.3661 19.8785C68.2186 21.5119 68.4462 22.575 69.0488 23.0809C69.6557 23.5824 70.1572 23.7668 70.5576 23.6296C70.958 23.4924 71.2572 23.1623 71.4553 22.6393L71.6407 22.6222C71.8093 22.605 71.9357 22.7122 72.0073 22.9351L72.0158 23.0294C72.0284 23.1881 71.9104 23.4281 71.666 23.7496C71.4173 24.0712 70.8821 24.2855 70.0519 24.3927C69.2258 24.4999 68.5473 24.024 68.0163 22.9566C67.4853 21.8891 67.3336 20.8345 67.5527 19.7928V19.7285L67.5317 19.1926C67.401 19.0983 67.3251 18.9697 67.3125 18.8025C67.3462 18.5453 67.4769 18.4081 67.7087 18.3867L67.8014 18.3781C67.9615 17.8165 68.2692 17.1177 68.737 16.2775C69.3565 15.2572 69.8917 14.7256 70.3342 14.6828L70.3384 14.6913ZM68.619 18.4681H68.6485C69.209 18.2452 69.8243 17.7522 70.5028 16.9763C70.7978 16.5647 70.9369 16.2475 70.9158 16.0246L70.9032 15.9003C70.802 15.5959 70.6629 15.4501 70.4944 15.463C69.9886 15.7588 69.5166 16.4018 69.0783 17.3878C68.9182 17.6279 68.7665 17.988 68.6147 18.4681H68.619Z" fill="#CF002D"/>
<path d="M77.8862 5.47443C78.177 5.483 78.3329 5.60732 78.3498 5.8431C78.2192 6.96199 78.2318 8.39812 78.3835 10.1601L79.4455 19.2055C79.631 21.8377 79.6099 23.1623 79.3865 23.1838L79.2348 23.2309L79.1421 23.2395C78.9145 23.2266 78.7923 23.1195 78.7755 22.9266L78.7333 22.425C77.9537 23.1238 77.2203 23.5053 76.5376 23.5653C75.3829 23.6682 74.422 22.9437 73.655 21.3961C73.301 20.6288 73.0818 19.7971 73.0059 18.9011L72.9933 18.7768C72.8332 16.8991 73.2672 15.6002 74.2998 14.8757C74.5653 14.7042 74.8561 14.6056 75.1721 14.5756C76.1288 14.4899 77.0349 14.9143 77.8862 15.8445C78.0169 15.9989 78.1602 16.2304 78.3161 16.5304H78.3456V16.4961C77.9368 13.4224 77.6839 11.3347 77.587 10.2286C77.3805 7.11632 77.4395 5.5473 77.7682 5.5173L77.8904 5.47443H77.8862ZM73.7772 18.5453L73.8193 19.0126C73.9415 20.4015 74.4515 21.5333 75.3534 22.4078C75.7284 22.6693 76.1077 22.7808 76.4997 22.7465C77.1782 22.6865 77.8904 22.2106 78.6406 21.3275L78.628 21.2032C78.3667 18.1723 77.6924 16.3633 76.6093 15.7717C76.1415 15.4759 75.6652 15.3515 75.1806 15.3944C74.3883 15.4673 73.9205 16.2518 73.773 17.7565V18.5453H73.7772Z" fill="#CF002D"/>
<path d="M85.114 4.82709C85.4048 4.83566 85.5607 4.95998 85.5776 5.19576C85.4469 6.31466 85.4596 7.75078 85.6113 9.51271L86.6733 18.5582C86.8588 21.1903 86.8377 22.515 86.6143 22.5364L86.4626 22.5836L86.3699 22.5922C86.1423 22.5793 86.0201 22.4721 86.0032 22.2792L85.9611 21.7776C85.1814 22.4764 84.4481 22.858 83.7654 22.918C82.6106 23.0209 81.6498 22.2964 80.8827 20.7488C80.5287 19.9814 80.3096 19.1498 80.2337 18.2538L80.2211 18.1295C80.0609 16.2518 80.495 14.9528 81.5275 14.2283C81.793 14.0569 82.0838 13.9583 82.3999 13.9283C83.3566 13.8425 84.2627 14.2669 85.114 15.1972C85.2446 15.3515 85.3879 15.583 85.5439 15.8831H85.5734V15.8488C85.1646 12.7751 84.9117 10.6873 84.8148 9.5813C84.6083 6.46898 84.6673 4.89997 84.996 4.86996L85.1182 4.82709H85.114ZM81.005 17.898L81.0471 18.3652C81.1693 19.7542 81.6793 20.886 82.5811 21.7605C82.9562 22.022 83.3355 22.1335 83.7275 22.0992C84.406 22.0391 85.1182 21.5633 85.8684 20.6802L85.8557 20.5559C85.5944 17.525 84.9201 15.7159 83.837 15.1243C83.3692 14.8285 82.893 14.7042 82.4083 14.7471C81.616 14.8199 81.1482 15.6045 81.0007 17.1092V17.898H81.005Z" fill="#CF002D"/>
<path d="M90.4283 12.8951L90.6727 12.8737C91.1658 12.8308 91.5409 13.2167 91.7937 14.0355V14.0998C91.8822 15.0815 91.1068 16.1146 89.4632 17.2078C88.9827 17.4607 88.6329 17.5979 88.4138 17.6151L88.4559 18.0823C88.3084 19.7157 88.536 20.7788 89.1387 21.2847C89.7455 21.7862 90.2471 21.9706 90.6474 21.8334C91.0478 21.6962 91.347 21.3661 91.5451 20.8431L91.7305 20.826C91.8991 20.8088 92.0255 20.916 92.0972 21.1389L92.1056 21.2332C92.1183 21.3918 92.0003 21.6319 91.7558 21.9534C91.5072 22.275 90.9719 22.4893 90.1417 22.5965C89.3157 22.7036 88.6372 22.2278 88.1061 21.1604C87.5751 20.0929 87.4234 19.0383 87.6426 17.9966V17.9323L87.6215 17.3964C87.4908 17.3021 87.415 17.1735 87.4023 17.0063C87.4361 16.7491 87.5667 16.6119 87.7985 16.5905L87.8912 16.5819C88.0514 16.0203 88.359 15.3215 88.8268 14.4813C89.4463 13.461 89.9816 12.9294 90.4241 12.8866L90.4283 12.8951ZM88.7088 16.6719H88.7383C89.2988 16.449 89.9141 15.956 90.5926 15.1801C90.8877 14.7685 91.0267 14.4513 91.0057 14.2284L90.993 14.104C90.8919 13.7997 90.7528 13.6539 90.5842 13.6668C90.0785 13.9626 89.6065 14.6056 89.1682 15.5916C89.008 15.8317 88.8563 16.1918 88.7046 16.6719H88.7088Z" fill="#CF002D"/>
<path d="M97.5803 11.982H97.6224C98.1155 11.9348 98.5369 12.0934 98.8909 12.4536L98.9837 12.6765C99.009 12.9766 98.8446 13.1566 98.4948 13.2252C98.0649 13.0537 97.8036 12.9723 97.7109 12.9808L97.5971 12.9894C96.9102 13.0023 96.2359 13.7396 95.5784 15.2101C94.8283 16.9634 94.588 19.0812 94.8578 21.559C94.8578 21.8034 94.7693 21.9363 94.5923 21.9491H94.5501C94.2214 21.9834 94.0317 21.6876 93.977 21.0703C93.4249 16.0546 93.0919 13.551 92.9781 13.5639L92.818 13.0323L92.8054 12.8865C92.7885 12.6722 92.9234 12.5136 93.2184 12.4193C93.5682 12.3892 93.8252 12.7279 93.998 13.4438C94.2298 14.6013 94.3731 15.493 94.4279 16.1275H94.4574C94.8957 14.4041 95.5321 13.2081 96.3665 12.5307C96.7585 12.2092 97.163 12.0291 97.5803 11.9906V11.982Z" fill="#CF002D"/>
<path d="M107.804 11.5276C108.083 11.5019 108.268 11.8234 108.352 12.4878C108.403 13.0494 108.85 14.5456 109.701 16.9677L110.375 18.6739H110.405C110.696 17.2721 111.277 14.8757 112.137 11.489C112.128 11.369 112.242 11.2746 112.482 11.2061C112.735 11.2404 112.866 11.3518 112.883 11.549V11.579C112.655 12.7193 112.183 14.6742 111.471 17.4436C111.26 18.3309 111.062 19.3041 110.885 20.363C110.805 20.453 110.725 20.5044 110.649 20.5087L110.527 20.5216C110.287 20.543 110.084 20.2343 109.92 19.5999C109.225 18.018 108.622 16.419 108.112 14.8114C107.813 13.7225 107.573 12.7708 107.4 11.9434C107.438 11.6862 107.573 11.549 107.796 11.5276H107.804Z" fill="#CF002D"/>
<path d="M114.117 10.7002H114.181C114.358 10.6788 114.493 10.7817 114.581 11.0046C114.568 11.5576 114.581 12.2092 114.627 12.9551L115.184 17.3621L115.238 18.018C115.356 19.3727 115.293 20.0629 115.045 20.0843L114.922 20.1272C114.653 20.1143 114.509 20.0157 114.493 19.8185L114.434 17.7136L113.877 13.3067L113.827 12.7108C113.713 11.4161 113.763 10.7645 113.966 10.7431L114.117 10.6959V10.7002ZM113.856 8.04231L113.978 8.02944C114.168 8.0123 114.294 8.14948 114.353 8.4367C114.379 8.72822 114.257 8.88683 113.991 8.90827L113.898 8.91684C113.7 8.93399 113.565 8.80109 113.49 8.51387C113.553 8.21378 113.675 8.05517 113.852 8.04231H113.856Z" fill="#CF002D"/>
<path d="M125.421 1.79193H125.484C125.732 1.81337 125.867 1.92911 125.884 2.1306L125.72 2.74363C125.564 4.26978 125.614 6.52471 125.872 9.50842C126.242 13.7782 126.752 16.8305 127.406 18.6696C127.363 18.9054 127.262 19.0297 127.098 19.0426L127.005 19.0511C126.689 19.0812 126.411 18.4853 126.171 17.2678C125.741 15.403 125.399 13.0066 125.147 10.0786L125.058 9.04543C124.645 4.26978 124.767 1.85195 125.425 1.79622L125.421 1.79193Z" fill="#CF002D"/>
<path d="M128.796 9.38844H128.86C129.037 9.36701 129.171 9.46989 129.26 9.69281C129.247 10.2458 129.26 10.8974 129.306 11.6434L129.863 16.0503L129.917 16.7062C130.035 18.0609 129.972 18.7511 129.724 18.7726L129.601 18.8154C129.332 18.8026 129.188 18.704 129.171 18.5068L129.112 16.4019L128.556 11.9949L128.506 11.399C128.392 10.1044 128.442 9.45274 128.645 9.43131L128.796 9.38415V9.38844ZM128.535 6.73054L128.657 6.71768C128.847 6.70053 128.973 6.83771 129.032 7.12494C129.058 7.41645 128.935 7.57506 128.67 7.5965L128.577 7.60507C128.379 7.62222 128.244 7.48933 128.168 7.2021C128.232 6.90202 128.354 6.7434 128.531 6.73054H128.535Z" fill="#CF002D"/>
<path d="M130.836 9.46984C131.114 9.44411 131.3 9.76563 131.384 10.4301C131.434 10.9917 131.881 12.4878 132.732 14.91L133.407 16.6162H133.436C133.727 15.2143 134.309 12.8179 135.168 9.43125C135.16 9.31122 135.274 9.21691 135.514 9.14832C135.767 9.18261 135.897 9.29407 135.914 9.49127V9.52128C135.687 10.6616 135.215 12.6164 134.503 15.3858C134.292 16.2732 134.094 17.2463 133.917 18.3052C133.837 18.3952 133.757 18.4467 133.681 18.451L133.558 18.4638C133.318 18.4853 133.116 18.1766 132.952 17.5421C132.256 15.9603 131.654 14.3612 131.144 12.7536C130.844 11.6647 130.604 10.713 130.431 9.88567C130.469 9.62845 130.604 9.49127 130.828 9.46984H130.836Z" fill="#CF002D"/>
<path d="M138.043 1.44783e-05C138.317 0.0514577 138.46 0.167205 138.477 0.338683C138.3 1.65906 138.279 3.07804 138.409 4.5999L138.456 5.13148L139.176 11.6562C139.345 13.6153 139.328 14.6056 139.121 14.6228C139.079 14.6914 139.012 14.7256 138.915 14.7342H138.885C138.633 14.7042 138.502 14.6013 138.485 14.4256C138.485 13.4224 138.456 12.6379 138.405 12.0677L138.342 11.3475L137.63 4.88713C137.465 2.98801 137.495 1.43185 137.722 0.214361C137.815 0.102901 137.925 0.0300231 138.043 -0.00427246V1.44783e-05Z" fill="#CF002D"/>
<path d="M141.359 15.4973C141.705 15.7931 141.751 16.3204 141.461 16.6719L139.518 19.0297C139.471 19.0854 139.387 19.094 139.332 19.0469L137.014 17.0706C136.669 16.7748 136.623 16.2475 136.913 15.896C137.204 15.5444 137.722 15.4973 138.068 15.7931L138.953 16.5476C139.05 16.629 139.172 16.6505 139.286 16.6205C139.353 16.599 139.417 16.5604 139.463 16.5047L140.205 15.6045C140.496 15.2529 141.014 15.2058 141.359 15.5016V15.4973ZM139.939 15.373L139.198 16.2732C139.198 16.2732 139.185 16.2818 139.176 16.2732L138.291 15.5187C137.798 15.0986 137.061 15.1629 136.648 15.6645C136.235 16.166 136.298 16.9163 136.791 17.3364L139.109 19.3127C139.134 19.3341 139.16 19.3512 139.185 19.3641C139.383 19.4756 139.636 19.4327 139.783 19.2526L141.726 16.8948C142.139 16.3932 142.076 15.643 141.583 15.2229C141.09 14.8028 140.352 14.8671 139.939 15.3687V15.373Z" fill="#CF002D"/>
</g>
<defs>
<clipPath id="clip0_176_1032">
<rect width="142" height="30" fill="white"/>
</clipPath>
</defs>
</svg>
