<svg width="46" height="46" viewBox="0 0 46 46" fill="none" xmlns="http://www.w3.org/2000/svg">
<path d="M25.933 17.4568H7.14796C3.2071 17.4568 0 20.6565 0 24.5884C0 28.5203 3.2071 31.7179 7.14796 31.7179H14.3149V38.8685C14.3149 42.8003 17.5199 46.0001 21.4608 46.0001C25.4016 46.0001 28.6087 42.8003 28.6087 38.8685V20.1285C28.6087 18.6559 27.409 17.4589 25.933 17.4589V17.4568Z" fill="#0E256A"/>
<path d="M38.8541 14.2822H31.7736C31.7251 14.2822 31.6872 14.2443 31.6872 14.1959V7.13162C31.6872 3.19976 28.4822 0 24.5392 0C20.5962 0 17.3912 3.19976 17.3912 7.13162V25.6149C17.3912 25.8043 17.4102 25.9915 17.4439 26.1703C17.7054 27.5209 18.8967 28.5433 20.3263 28.5433H38.852C42.7929 28.5433 46 25.3435 46 21.4117C46 17.4798 42.7929 14.2801 38.852 14.2801L38.8541 14.2822ZM43.8745 21.4138C43.8745 24.176 41.6226 26.4228 38.8541 26.4228H20.3284C19.8835 26.4228 19.5209 26.0609 19.5209 25.617V7.13162C19.5209 4.36943 21.7728 2.12266 24.5413 2.12266C27.3098 2.12266 29.5618 4.36943 29.5618 7.13162V14.1959C29.5618 14.9575 29.9497 15.6307 30.5401 16.0283C30.8922 16.266 31.3182 16.4048 31.7757 16.4048H38.8562C41.6247 16.4048 43.8767 18.6516 43.8767 21.4138H43.8745Z" fill="#CF002D"/>
</svg>
